<?xml version="1.0" standalone="no"?>
<!DOCTYPE svg PUBLIC "-//W3C//DTD SVG 20010904//EN"
 "http://www.w3.org/TR/2001/REC-SVG-20010904/DTD/svg10.dtd">
<svg version="1.0" xmlns="http://www.w3.org/2000/svg"
 width="1000.000000pt" height="1000.000000pt" viewBox="0 0 1000.000000 1000.000000"
 preserveAspectRatio="xMidYMid meet">
<metadata>
Created by potrace 1.11, written by Peter Selinger 2001-2013
</metadata>
<g transform="translate(0.000000,1000.000000) scale(0.100000,-0.100000)"
fill="#000000" stroke="none">
<path d="M5383 9002 l-31 -27 -66 -468 -65 -468 52 -350 c28 -193 52 -347 54
-342 1 4 23 148 48 318 l45 310 -2 527 -3 527 -32 -27z"/>
<path d="M3644 8890 c-29 -58 -82 -168 -118 -244 l-67 -140 3 -149 3 -149 72
154 c40 84 93 197 118 251 l46 99 -3 141 -3 142 -51 -105z"/>
<path d="M3553 7768 c-11 -18 -36 -63 -56 -100 l-37 -66 0 -177 0 -177 106
-284 106 -284 190 0 190 0 106 92 c59 50 114 97 122 105 12 11 -16 13 -170 13
l-185 0 -105 -90 c-58 -49 -108 -89 -112 -90 -5 0 -8 172 -8 382 l0 381 -61
161 c-33 88 -62 162 -63 164 -2 2 -13 -12 -23 -30z"/>
<path d="M2977 6787 l-118 -102 176 -3 177 -2 81 69 c45 38 100 85 122 105
l40 35 -180 0 -180 0 -118 -102z"/>
<path d="M4923 6789 c-65 -56 -120 -103 -122 -105 -2 -2 117 -4 265 -4 l269 0
95 81 c52 44 106 92 120 105 l25 24 -267 0 -267 0 -118 -101z"/>
<path d="M2908 6040 l-128 -111 0 -1150 c0 -1055 1 -1150 16 -1156 9 -3 175
-1 368 5 379 11 420 17 518 75 47 28 132 112 149 149 6 13 35 35 68 50 130 61
215 180 246 341 19 101 19 383 1 489 -27 147 -101 259 -210 315 l-48 25 48 33
c94 63 140 135 170 261 24 105 16 394 -14 486 -45 135 -129 219 -267 265 -80
27 -80 27 -435 30 l-355 4 -127 -111z m538 -482 c47 -57 57 -93 58 -223 l1
-120 -52 -3 -53 -3 0 190 c0 108 4 191 9 191 5 0 22 -15 37 -32z m23 -943 c56
-51 71 -114 71 -298 l0 -147 -70 0 -70 0 0 240 c0 270 -1 268 69 205z"/>
<path d="M4840 6042 l-125 -109 -183 -1146 c-101 -630 -181 -1151 -177 -1157
4 -6 64 -10 163 -10 l157 0 122 105 c67 58 126 113 131 123 5 9 15 56 21 105
l13 87 112 0 113 0 28 -192 c15 -106 32 -201 37 -210 8 -16 27 -18 183 -18
l174 0 131 112 c117 99 130 114 125 137 -3 14 -84 519 -180 1121 -96 602 -177
1110 -180 1128 l-6 32 -267 0 -267 0 -125 -108z m270 -1449 c0 -8 -14 -13 -36
-13 -29 0 -34 3 -31 18 3 9 8 40 12 67 13 103 17 105 36 20 10 -44 19 -86 19
-92z"/>
<path d="M6203 6042 l-123 -107 0 -167 0 -168 326 0 c257 0 325 -3 321 -12 -3
-7 -156 -376 -341 -820 l-336 -808 2 -167 3 -168 523 -3 524 -2 129 111 129
111 0 164 0 164 -340 0 c-259 0 -340 3 -340 12 0 7 153 379 340 828 l340 816
0 162 0 162 -517 -1 -518 0 -122 -107z"/>
<path d="M3115 3234 c-60 -52 -118 -103 -128 -113 -14 -14 -53 -239 -197
-1142 -99 -618 -183 -1136 -186 -1152 l-6 -27 169 0 168 0 126 108 127 107 12
85 c18 132 5 120 130 120 104 0 108 -1 113 -22 3 -13 18 -107 33 -211 l28
-187 183 0 184 0 124 107 c86 73 125 114 125 128 -1 11 -83 531 -183 1155
l-182 1135 -265 2 -265 2 -110 -95z m372 -396 c-3 -8 -6 -5 -6 6 -1 11 2 17 5
13 3 -3 4 -12 1 -19z m-142 -975 c9 -43 19 -86 21 -95 4 -15 -1 -18 -32 -18
l-37 0 6 38 c4 20 9 63 13 95 4 31 8 57 9 57 2 0 11 -35 20 -77z"/>
<path d="M4775 3234 c-60 -52 -118 -103 -127 -112 -14 -14 -55 -249 -198
-1142 -98 -619 -182 -1137 -184 -1152 l-5 -28 167 0 167 0 126 108 127 107 12
85 c18 132 5 120 130 120 95 0 109 -2 113 -17 3 -10 18 -105 33 -210 l27 -193
184 0 184 0 124 107 c86 73 125 114 125 128 -1 11 -83 531 -183 1155 l-182
1135 -265 2 -265 2 -110 -95z m234 -1392 l18 -92 -35 0 c-34 0 -35 0 -29 38 4
20 9 63 13 95 4 32 8 56 10 54 2 -2 12 -45 23 -95z"/>
<path d="M6148 3223 l-127 -108 0 -1157 -1 -1158 180 0 181 0 124 107 125 107
0 343 c0 189 4 343 8 343 15 0 61 -55 79 -95 15 -35 18 -84 24 -380 4 -226 10
-354 19 -382 l12 -43 187 0 186 0 127 108 c88 74 125 112 121 122 -26 65 -33
153 -33 412 0 152 -5 311 -11 354 -21 150 -77 254 -171 314 l-58 38 50 32 c83
54 137 136 167 257 25 99 24 451 0 543 -50 187 -138 275 -322 326 -49 13 -124
17 -400 21 l-340 4 -127 -108z m535 -497 c47 -46 57 -97 57 -280 l0 -156 -55
0 -55 0 0 235 c0 145 4 235 10 235 5 0 25 -15 43 -34z"/>
</g>
</svg>
